<?xml version="1.0" encoding="utf-8"?>
<!-- Generator: Adobe Illustrator 27.0.1, SVG Export Plug-In . SVG Version: 6.00 Build 0)  -->
<svg version="1.1" id="Layer_1" xmlns="http://www.w3.org/2000/svg" xmlns:xlink="http://www.w3.org/1999/xlink" x="0px" y="0px"
	 viewBox="0 0 96.1 146.1" style="enable-background:new 0 0 96.1 146.1;" xml:space="preserve">
<style type="text/css">
</style>
<g>
	<path class="st0" d="M96.1,85.4c0,19.7-4.1,34.7-12.2,45.1c-8.1,10.4-20.1,15.6-35.7,15.6c-15.5,0-27.3-5.1-35.5-15.3
		C4.4,120.5,0.2,105.9,0,86.8V60.6c0-19.9,4.1-34.9,12.4-45.2C20.6,5.1,32.5,0,47.9,0c15.5,0,27.3,5.1,35.5,15.3
		c8.2,10.2,12.4,24.8,12.6,43.9V85.4z M67.9,56.6c0-11.8-1.6-20.4-4.8-25.8c-3.2-5.4-8.3-8.1-15.1-8.1c-6.6,0-11.5,2.6-14.7,7.7
		c-3.2,5.1-4.8,13.1-5,24V89c0,11.6,1.6,20.2,4.7,25.9c3.2,5.6,8.2,8.5,15.2,8.5c6.9,0,11.9-2.7,14.9-8.1c3.1-5.4,4.7-13.7,4.8-24.8
		V56.6z"/>
</g>
</svg>
