<?xml version="1.0" encoding="utf-8"?>
<!-- Generator: Adobe Illustrator 27.0.1, SVG Export Plug-In . SVG Version: 6.00 Build 0)  -->
<svg version="1.1" id="Layer_1" xmlns="http://www.w3.org/2000/svg" xmlns:xlink="http://www.w3.org/1999/xlink" x="0px" y="0px"
	 viewBox="0 0 100.3 144.1" style="enable-background:new 0 0 100.3 144.1;" xml:space="preserve">

<g class="st0">
	<path  d="M100.3,144.1H2.8v-19.3l46-49c6.3-6.9,11-12.9,14-18.1c3-5.1,4.5-10,4.5-14.6c0-6.3-1.6-11.3-4.8-14.9
		c-3.2-3.6-7.7-5.4-13.7-5.4c-6.4,0-11.4,2.2-15.1,6.6c-3.7,4.4-5.5,10.2-5.5,17.3H0C0,38,2.1,30.1,6.2,22.9
		c4.1-7.2,10-12.8,17.5-16.8C31.3,2,39.8,0,49.4,0c14.6,0,26,3.5,34.1,10.5s12.2,17,12.2,29.8c0,7-1.8,14.2-5.5,21.5
		c-3.6,7.3-9.9,15.8-18.8,25.5l-32.3,34.1h61.1V144.1z"/>
</g>
</svg>
