<svg xmlns="http://www.w3.org/2000/svg" width="124.873" height="32.5" viewBox="0 0 124.873 32.5">
    <defs>
        <clipPath id="97xtzxje7a">
            <path data-name="Rectangle 6624" style="fill:none" d="M0 0h124.873v32.5H0z"/>
        </clipPath>
    </defs>
    <path data-name="Path 43353" d="m48.725 19.906 2.669 6.152 2.681-6.152z" transform="translate(-36.38 -14.863)" style="fill:#7a97ab"/>
    <path data-name="Path 43354" d="m60.313 46.906 2.954 6.742 2.966-6.742z" transform="translate(-45.032 -35.022)" style="fill:#215273"/>
    <path data-name="Path 43355" d="m77.5 11.364-4.2-9.686-4.222 9.686z" transform="translate(-51.581 -1.253)" style="fill:#00a398"/>
    <path data-name="Path 43356" d="m51.115 0-1.464 3.36h2.922z" transform="translate(-37.071)" style="fill:#66c8c1"/>
    <g data-name="Group 15254">
        <g data-name="Group 15253" style="clip-path:url(#97xtzxje7a)">
            <path data-name="Path 43357" d="M134.917 57.052c0 4.456-3.879 6.6-8.295 6.6-4.127 0-7.18-1.733-8.666-4.911l4.621-2.6a3.931 3.931 0 0 0 4.044 2.682c1.692 0 2.847-.578 2.847-1.774 0-3.013-10.647-1.364-10.647-8.625 0-4.209 3.59-6.562 7.841-6.562a8.69 8.69 0 0 1 7.84 4.375l-4.54 2.476a3.49 3.49 0 0 0-3.3-2.1c-1.32 0-2.394.578-2.394 1.692 0 3.054 10.647 1.155 10.647 8.748" transform="translate(-88.07 -31.258)" style="fill:#215273"/>
            <path data-name="Path 43358" d="M208.8 57.052c0 4.456-3.879 6.6-8.295 6.6-4.127 0-7.18-1.733-8.667-4.911l4.621-2.6a3.931 3.931 0 0 0 4.044 2.682c1.692 0 2.847-.578 2.847-1.774 0-3.013-10.647-1.364-10.647-8.625 0-4.209 3.59-6.562 7.841-6.562a8.691 8.691 0 0 1 7.841 4.375l-4.54 2.476a3.49 3.49 0 0 0-3.3-2.1c-1.32 0-2.394.578-2.394 1.692 0 3.054 10.647 1.155 10.647 8.748" transform="translate(-143.235 -31.258)" style="fill:#215273"/>
            <path data-name="Path 43359" d="M277.117 59.235a5.719 5.719 0 0 0 4.621-2.063l4.292 2.476a10.448 10.448 0 0 1-9 4.416c-6.933 0-11.307-4.746-11.307-10.894a10.535 10.535 0 0 1 10.897-10.896c6.108 0 10.441 4.828 10.441 10.894a12.29 12.29 0 0 1-.207 2.187H271.3c.743 2.727 3.013 3.879 5.818 3.879m4.621-8.186a5.006 5.006 0 0 0-5.117-4.166 5.145 5.145 0 0 0-5.406 4.166z" transform="translate(-198.401 -31.564)" style="fill:#215273"/>
            <path data-name="Path 43360" d="m21.15 36.285-2.894 6.654H9.908l4.151-9.545-2.935-6.73-7.058 16.275-2.057 4.743L0 52.314h5.94l2-4.56h12.229l1.961 4.56h5.989z" transform="translate(0 -19.907)" style="fill:#215273"/>
            <path data-name="Path 43361" d="M376.117 53.135v12.6H370.8V53.75c0-2.8-1.69-4.242-4.081-4.242-2.6 0-4.534 1.524-4.534 5.108v11.12h-5.321v-20.52h5.321v2.3a7.018 7.018 0 0 1 6.143-2.873c4.37 0 7.792 3.038 7.792 8.5" transform="translate(-266.445 -33.329)" style="fill:#215273"/>
            <path data-name="Path 43362" d="M448.728 33.981v8.5c0 2.207 1.574 2.248 4.56 2.084v4.919c-7.39.817-9.881-1.348-9.881-6.859v-8.644h-3.547v-5.068h3.547v-4.159l5.321-1.607v5.766h4.56v5.067z" transform="translate(-328.416 -17.282)" style="fill:#215273"/>
        </g>
    </g>
</svg>
