<svg xmlns="http://www.w3.org/2000/svg" width="821.941" height="391.447" viewBox="0 0 821.941 391.447">
    <g style="opacity:.02">
        <path data-name="Path 46156" d="m48.725 19.906 40.137 92.522 40.323-92.521z" transform="rotate(180 260.695 170.947)" style="fill:#215273"/>
        <path data-name="Path 46158" d="m48.725 19.906 40.137 92.522 40.323-92.521z" transform="rotate(180 310.005 56.215)" style="fill:#215273"/>
        <path data-name="Path 46159" d="m60.313 46.906 44.393 101.45 44.6-101.45z" transform="rotate(180 244.415 133.004)" style="fill:#215273"/>
        <path data-name="Path 46161" d="M195.759 147.351 132.577 1.678 69.085 147.351z" transform="rotate(180 232.087 196.563)" style="fill:#215273"/>
        <path data-name="Path 46162" d="M195.759 147.351 132.577 1.678 69.085 147.351z" transform="rotate(180 281.396 81.827)" style="fill:#215273"/>
        <path data-name="Path 46164" d="M71.672 0 49.651 50.529h43.941z" transform="rotate(180 308.708 84.188)" style="fill:#215273"/>
        <path data-name="Path 46165" d="M71.672 0 49.651 50.529h43.941z" transform="rotate(180 391.294 48.397)" style="fill:#215273"/>
        <path data-name="Path 46167" d="m48.725 19.906 40.137 92.522 40.323-92.521z" transform="rotate(180 89.677 165.765)" style="fill:#215273"/>
        <path data-name="Path 46168" d="m48.725 19.906 40.137 92.522 40.323-92.521z" transform="rotate(180 200.856 65.206)" style="fill:#215273"/>
        <path data-name="Path 46170" d="m60.313 46.906 44.393 101.45 44.6-101.45z" transform="rotate(180 142.284 161.316)" style="fill:#215273"/>
        <path data-name="Path 46170" d="m60.313 46.906 44.393 101.45 44.6-101.45z" transform="rotate(180 347.553 171.029)" style="fill:#215273"/>
        <path data-name="Path 46171" d="m60.313 46.906 44.393 101.45 44.6-101.45z" transform="rotate(180 441.127 120.44)" style="fill:#215273"/>
        <path data-name="Path 46174" d="M195.759 147.351 132.577 1.678 69.085 147.351z" transform="rotate(180 172.247 90.819)" style="fill:#215273"/>
        <path data-name="Path 46177" d="M71.672 0 49.651 50.529h43.941z" transform="rotate(180 199.56 93.18)" style="fill:#215273"/>
        <path data-name="Path 46178" d="M71.672 0 49.651 50.529h43.941z" transform="rotate(180 156.717 118.445)" style="fill:#215273"/>
        <path data-name="Path 46178" d="M71.672 0 49.651 50.529h43.941z" transform="rotate(180 46.796 87.138)" style="fill:#215273"/>
        <path data-name="Path 46178" d="M71.672 0 49.651 50.529h43.941z" transform="rotate(180 276.717 127.366)" style="fill:#215273"/>
    </g>
</svg>
