<?xml version="1.0" encoding="utf-8"?>
<!-- Generator: Adobe Illustrator 27.1.1, SVG Export Plug-In . SVG Version: 6.00 Build 0)  -->
<svg version="1.1" id="Layer_1" xmlns="http://www.w3.org/2000/svg" xmlns:xlink="http://www.w3.org/1999/xlink" x="0px" y="0px"
	 viewBox="0 0 19 19" style="enable-background:new 0 0 19 19;" xml:space="preserve">
<style type="text/css">
	.st0{fill:none;stroke:#FF773D;stroke-linecap:round;}
	.st1{fill:#FFE4D8;}
	.st2{fill:#FF773D;}
</style>
<symbol  id="New_Symbol" viewBox="-0.5 -1.4 1 2.4">
	<path class="st0" d="M0-0.9l0,1.4"/>
</symbol>
<g>
	<circle class="st1" cx="9.5" cy="9.5" r="9.5"/>
</g>
<g>
	<g>
		<g>
			<path class="st2" d="M12.9,9.7c0-1.9-1.5-3.4-3.4-3.4c-1.9,0-3.4,1.5-3.4,3.4c0,1.2,0.7,2.3,1.7,2.9v2.2c0,0.7,0.6,1.3,1.3,1.3
				H10c0.7,0,1.3-0.6,1.3-1.3v-2.3C12.3,12,12.9,10.9,12.9,9.7z"/>
		</g>
	</g>
	<g>
		<path class="st2" d="M7.8,13.7c0-0.6-0.2-1.2-0.6-1.6l4.8,0c-0.4,0.4-0.6,1-0.6,1.6"/>
	</g>
	<g>
		<circle class="st2" cx="9.5" cy="9.7" r="3.6"/>
		<path class="st1" d="M9.5,6.3c1.9,0,3.4,1.5,3.4,3.4s-1.5,3.4-3.4,3.4s-3.4-1.5-3.4-3.4S7.6,6.3,9.5,6.3 M9.5,5.8
			c-2.1,0-3.9,1.7-3.9,3.9s1.7,3.9,3.9,3.9s3.9-1.7,3.9-3.9S11.6,5.8,9.5,5.8L9.5,5.8z"/>
	</g>
	
		<use xlink:href="#New_Symbol"  width="1" height="2.4" id="XMLID_00000134958591753363090420000010933225837745575820_" x="-0.5" y="-1.4" transform="matrix(1 0 0 -1 9.4999 3.7522)" style="overflow:visible;"/>
	
		<use xlink:href="#New_Symbol"  width="1" height="2.4" id="XMLID_00000142153596332886137200000002179350540744370068_" x="-0.5" y="-1.4" transform="matrix(0.8391 0.544 0.544 -0.8391 12.6406 4.6813)" style="overflow:visible;"/>
	
		<use xlink:href="#New_Symbol"  width="1" height="2.4" id="XMLID_00000134235426263445860750000012198369165894117282_" x="-0.5" y="-1.4" transform="matrix(0.8393 -0.5437 -0.5437 -0.8393 6.3611 4.6801)" style="overflow:visible;"/>
	
		<use xlink:href="#New_Symbol"  width="1" height="2.4" id="XMLID_00000065058011280977205190000007763253381787405236_" x="-0.5" y="-1.4" transform="matrix(0.4058 -0.914 -0.914 -0.4058 4.2236 7.1827)" style="overflow:visible;"/>
	
		<use xlink:href="#New_Symbol"  width="1" height="2.4" id="XMLID_00000101095011126890195650000000080046274331580559_" x="-0.5" y="-1.4" transform="matrix(0.4057 0.914 0.914 -0.4057 14.7764 7.183)" style="overflow:visible;"/>
</g>
</svg>
