<?xml version="1.0" encoding="utf-8"?>
<!-- Generator: Adobe Illustrator 27.0.1, SVG Export Plug-In . SVG Version: 6.00 Build 0)  -->
<svg version="1.1" id="Layer_1" xmlns="http://www.w3.org/2000/svg" xmlns:xlink="http://www.w3.org/1999/xlink" x="0px" y="0px"
	 viewBox="0 0 48.1 10.6" style="enable-background:new 0 0 48.1 10.6;" xml:space="preserve">
<style type="text/css">
	.st0{enable-background:new    ;}
	.st1{fill:#343A40;}
</style>
<g class="st0">
	<path class="st1" d="M3.5,6.1C2.4,5.7,1.6,5.3,1.1,4.9C0.6,4.4,0.3,3.8,0.3,3.1c0-0.8,0.3-1.4,0.9-1.9c0.6-0.5,1.4-0.8,2.4-0.8
		c0.7,0,1.3,0.1,1.8,0.4s1,0.6,1.2,1.1s0.4,1,0.4,1.5H5.9c0-0.6-0.2-1.1-0.6-1.4C4.9,1.7,4.4,1.5,3.7,1.5c-0.6,0-1.2,0.1-1.5,0.4
		C1.8,2.2,1.6,2.6,1.6,3.1c0,0.4,0.2,0.8,0.5,1c0.3,0.3,0.9,0.5,1.8,0.8c0.8,0.2,1.5,0.5,1.9,0.8c0.5,0.3,0.8,0.6,1,1S7.2,7.5,7.2,8
		c0,0.8-0.3,1.5-0.9,1.9c-0.6,0.5-1.5,0.7-2.5,0.7c-0.7,0-1.3-0.1-1.9-0.4c-0.6-0.3-1-0.6-1.4-1.1S0,8.2,0,7.6h1.3
		C1.3,8.2,1.5,8.7,2,9c0.4,0.3,1,0.5,1.8,0.5c0.7,0,1.2-0.1,1.6-0.4S5.9,8.5,5.9,8S5.7,7.1,5.4,6.9C5.1,6.6,4.4,6.3,3.5,6.1z"/>
	<path class="st1" d="M10,4c0.6-0.7,1.3-1,2.2-1c1.6,0,2.4,0.9,2.4,2.6v4.9h-1.3V5.6c0-0.5-0.1-0.9-0.4-1.2S12.3,4,11.8,4
		c-0.4,0-0.8,0.1-1.1,0.3S10.2,4.9,10,5.2v5.3H8.7V0H10V4z"/>
	<path class="st1" d="M21,10.5c-0.1-0.1-0.1-0.4-0.2-0.8c-0.6,0.6-1.3,0.9-2.1,0.9c-0.7,0-1.3-0.2-1.8-0.6c-0.5-0.4-0.7-0.9-0.7-1.6
		c0-0.8,0.3-1.4,0.9-1.8C17.7,6.2,18.5,6,19.6,6h1.2V5.4c0-0.4-0.1-0.8-0.4-1.1C20.1,4.1,19.7,4,19.2,4c-0.5,0-0.8,0.1-1.1,0.3
		s-0.5,0.5-0.5,0.8h-1.3c0-0.4,0.1-0.7,0.4-1.1c0.3-0.3,0.6-0.6,1.1-0.8S18.8,3,19.3,3c0.9,0,1.5,0.2,2,0.6c0.5,0.4,0.7,1,0.8,1.8
		v3.4c0,0.7,0.1,1.2,0.3,1.6v0.1H21z M18.9,9.5c0.4,0,0.8-0.1,1.1-0.3s0.6-0.5,0.8-0.8V6.9h-1c-1.5,0-2.3,0.5-2.3,1.4
		c0,0.4,0.1,0.7,0.4,0.9S18.5,9.5,18.9,9.5z"/>
	<path class="st1" d="M25.4,10.5h-1.3V0h1.3V10.5z"/>
	<path class="st1" d="M28.8,10.5h-1.3V0h1.3V10.5z"/>
	<path class="st1" d="M30.5,6.7c0-0.7,0.1-1.4,0.4-2c0.3-0.6,0.7-1,1.2-1.3C32.6,3.1,33.2,3,33.9,3c1,0,1.8,0.3,2.4,1
		c0.6,0.7,0.9,1.6,0.9,2.8v0.1c0,0.7-0.1,1.4-0.4,1.9c-0.3,0.6-0.7,1-1.2,1.3c-0.5,0.3-1.1,0.5-1.8,0.5c-1,0-1.8-0.3-2.4-1
		C30.8,8.9,30.5,8,30.5,6.7L30.5,6.7z M31.8,6.9c0,0.8,0.2,1.5,0.6,2c0.4,0.5,0.9,0.7,1.5,0.7c0.6,0,1.2-0.3,1.5-0.8
		C35.8,8.3,36,7.6,36,6.7c0-0.8-0.2-1.5-0.6-2C35,4.3,34.5,4,33.9,4c-0.6,0-1.1,0.2-1.5,0.7S31.8,6,31.8,6.9z"/>
	<path class="st1" d="M45.4,8.8l1.4-5.7h1.3l-2.2,7.4h-1l-1.8-5.6l-1.8,5.6h-1l-2.1-7.4h1.3l1.5,5.5l1.7-5.5h1L45.4,8.8z"/>
</g>
</svg>
