<?xml version="1.0" encoding="utf-8"?>
<!-- Generator: Adobe Illustrator 27.0.1, SVG Export Plug-In . SVG Version: 6.00 Build 0)  -->
<svg version="1.1" id="Layer_1" xmlns="http://www.w3.org/2000/svg" xmlns:xlink="http://www.w3.org/1999/xlink" x="0px" y="0px"
	 viewBox="0 0 30.1 12.8" style="enable-background:new 0 0 30.1 12.8;" xml:space="preserve">
<style type="text/css">
	.st0{enable-background:new    ;}
	.st1{fill:#343A40;}
</style>
<g class="st0">
	<path class="st1" d="M0,10V0h2.8c0.9,0,1.6,0.2,2.3,0.6C5.8,1,6.3,1.5,6.6,2.2s0.5,1.5,0.5,2.4v0.6C7.2,6.2,7,7,6.7,7.7
		S5.8,9,5.1,9.4C4.4,9.8,3.6,9.9,2.8,10H0z M1.3,1.1v7.8h1.4c1,0,1.8-0.3,2.4-0.9c0.6-0.6,0.8-1.5,0.8-2.7V4.7c0-1.1-0.3-2-0.8-2.6
		c-0.5-0.6-1.3-0.9-2.3-1H1.3z"/>
	<path class="st1" d="M12.1,10.1c-1,0-1.8-0.3-2.4-1C9,8.4,8.7,7.6,8.7,6.5V6.2c0-0.7,0.1-1.4,0.4-2c0.3-0.6,0.7-1,1.2-1.4
		c0.5-0.3,1-0.5,1.6-0.5c1,0,1.7,0.3,2.2,1s0.8,1.5,0.8,2.7v0.5h-5c0,0.7,0.2,1.3,0.6,1.8c0.4,0.4,0.9,0.7,1.6,0.7
		c0.4,0,0.8-0.1,1.1-0.3c0.3-0.2,0.6-0.4,0.8-0.7l0.8,0.6C14.2,9.6,13.3,10.1,12.1,10.1z M11.9,3.5c-0.5,0-0.9,0.2-1.3,0.6
		C10.3,4.4,10,4.9,10,5.6h3.7V5.5c0-0.6-0.2-1.1-0.5-1.5C12.8,3.6,12.4,3.5,11.9,3.5z"/>
	<path class="st1" d="M19.5,10.1c-1,0-1.8-0.3-2.4-1c-0.6-0.7-0.9-1.5-0.9-2.6V6.2c0-0.7,0.1-1.4,0.4-2c0.3-0.6,0.7-1,1.2-1.4
		c0.5-0.3,1-0.5,1.6-0.5c1,0,1.7,0.3,2.2,1s0.8,1.5,0.8,2.7v0.5h-5c0,0.7,0.2,1.3,0.6,1.8c0.4,0.4,0.9,0.7,1.6,0.7
		c0.4,0,0.8-0.1,1.1-0.3c0.3-0.2,0.6-0.4,0.8-0.7l0.8,0.6C21.6,9.6,20.7,10.1,19.5,10.1z M19.3,3.5c-0.5,0-0.9,0.2-1.3,0.6
		c-0.3,0.4-0.6,0.9-0.6,1.6h3.7V5.5c0-0.6-0.2-1.1-0.5-1.5C20.3,3.6,19.8,3.5,19.3,3.5z"/>
	<path class="st1" d="M30.1,6.3c0,1.1-0.3,2-0.8,2.7c-0.5,0.7-1.2,1-2.1,1c-0.9,0-1.6-0.3-2.1-0.9v3.6h-1.3V2.6H25L25,3.4
		c0.5-0.6,1.2-1,2.1-1c0.9,0,1.6,0.3,2.1,1c0.5,0.7,0.8,1.6,0.8,2.8V6.3z M28.8,6.2c0-0.8-0.2-1.5-0.5-2s-0.8-0.7-1.5-0.7
		c-0.8,0-1.3,0.3-1.7,1V8c0.4,0.7,1,1,1.7,1c0.6,0,1.1-0.2,1.4-0.7C28.6,7.9,28.8,7.1,28.8,6.2z"/>
</g>
</svg>
