<?xml version="1.0" encoding="utf-8"?>
<!-- Generator: Adobe Illustrator 27.0.1, SVG Export Plug-In . SVG Version: 6.00 Build 0)  -->
<svg version="1.1" id="Layer_1" xmlns="http://www.w3.org/2000/svg" xmlns:xlink="http://www.w3.org/1999/xlink" x="0px" y="0px"
	 viewBox="0 0 87.2 10.2" style="enable-background:new 0 0 87.2 10.2;" xml:space="preserve">

<g  style="fill:#343A40">
	<path  d="M8.1,6.8C8,7.8,7.6,8.7,6.9,9.3s-1.7,0.9-2.8,0.9c-1.3,0-2.3-0.4-3-1.3C0.4,8.1,0,6.9,0,5.4V4.8
		c0-1,0.2-1.8,0.5-2.5S1.3,1,2,0.6C2.6,0.2,3.3,0,4.1,0c1.1,0,2.1,0.3,2.8,0.9S8,2.4,8.1,3.5H6.1C6,2.9,5.8,2.4,5.5,2.1
		C5.2,1.8,4.8,1.7,4.1,1.7c-0.7,0-1.2,0.2-1.5,0.7C2.3,2.9,2.1,3.7,2.1,4.7v0.8c0,1.1,0.2,1.9,0.5,2.4s0.8,0.7,1.5,0.7
		c0.6,0,1.1-0.1,1.4-0.4C5.8,7.8,6,7.4,6.1,6.8H8.1z"/>
	<path  d="M17.6,5.3c0,1-0.2,1.8-0.5,2.6s-0.8,1.3-1.5,1.7s-1.4,0.6-2.2,0.6c-0.8,0-1.6-0.2-2.2-0.6s-1.1-1-1.5-1.7
		C9.3,7.2,9.2,6.4,9.2,5.4V4.9c0-1,0.2-1.8,0.5-2.6C10,1.6,10.5,1,11.2,0.6C11.8,0.2,12.6,0,13.4,0s1.6,0.2,2.2,0.6
		c0.6,0.4,1.1,1,1.5,1.7c0.4,0.7,0.5,1.6,0.5,2.6V5.3z M15.6,4.9c0-1-0.2-1.8-0.6-2.4s-0.9-0.8-1.6-0.8c-0.7,0-1.2,0.3-1.6,0.8
		c-0.4,0.5-0.6,1.3-0.6,2.4v0.5c0,1,0.2,1.8,0.6,2.4s0.9,0.8,1.6,0.8c0.7,0,1.2-0.3,1.6-0.8c0.4-0.5,0.6-1.3,0.6-2.4V4.9z"/>
	<path  d="M21.8,0.1l2.6,7.2l2.5-7.2h2.7v10h-2.1V7.4l0.2-4.7l-2.7,7.4h-1.4L21,2.7l0.2,4.7v2.7h-2.1v-10H21.8z"/>
	<path  d="M33.4,6.6v3.5h-2.1v-10h3.9c0.7,0,1.4,0.1,2,0.4s1,0.7,1.3,1.2C38.9,2.2,39,2.8,39,3.4c0,1-0.3,1.7-1,2.3
		c-0.7,0.6-1.6,0.8-2.8,0.8H33.4z M33.4,4.9h1.8c0.5,0,1-0.1,1.2-0.4s0.4-0.6,0.4-1.1c0-0.5-0.1-0.9-0.4-1.2s-0.7-0.5-1.2-0.5h-1.9
		V4.9z"/>
	<path  d="M42.5,8.4h4.4v1.6h-6.4v-10h2.1V8.4z"/>
	<path  d="M50.2,10.1h-2.1v-10h2.1V10.1z"/>
	<path  d="M57.7,8h-3.6l-0.7,2.1h-2.2l3.7-10h1.9l3.7,10h-2.2L57.7,8z M54.7,6.4h2.5l-1.2-3.7L54.7,6.4z"/>
	<path  d="M69.6,10.1h-2.1l-4-6.5v6.5h-2.1v-10h2.1l4,6.6V0.1h2V10.1z"/>
	<path  d="M79.2,6.8c-0.1,1.1-0.5,1.9-1.2,2.5s-1.7,0.9-2.8,0.9c-1.3,0-2.3-0.4-3-1.3c-0.7-0.9-1.1-2-1.1-3.5V4.8
		c0-1,0.2-1.8,0.5-2.5C71.9,1.5,72.4,1,73,0.6C73.7,0.2,74.4,0,75.2,0c1.1,0,2.1,0.3,2.8,0.9c0.7,0.6,1.1,1.5,1.2,2.6h-2.1
		c0-0.6-0.2-1.1-0.5-1.4c-0.3-0.3-0.8-0.4-1.4-0.4c-0.7,0-1.2,0.2-1.5,0.7c-0.3,0.5-0.5,1.2-0.5,2.3v0.8c0,1.1,0.2,1.9,0.5,2.4
		s0.8,0.7,1.5,0.7c0.6,0,1.1-0.1,1.4-0.4c0.3-0.3,0.5-0.7,0.5-1.3H79.2z"/>
	<path  d="M86.5,5.8h-3.9v2.7h4.6v1.6h-6.7v-10h6.7v1.7h-4.6v2.4h3.9V5.8z"/>
</g>
</svg>
