<svg xmlns="http://www.w3.org/2000/svg" width="234.406" height="259.091" viewBox="0 0 234.406 259.091">
    <g data-name="Group 246">
        <g data-name="Group 3" style="opacity:.2">
            <g data-name="Group 1">
                <g data-name="Group 16627" style="opacity:.498">
                    <g data-name="Group 16625">
                        <path data-name="Path 46156" d="m79.055 19.906-15.13 34.877-15.2-34.876z" transform="translate(82.555 75.659)" style="fill:#fff"/>
                        <path data-name="Path 46157" d="m79.055 19.906-15.13 34.877-15.2-34.876z" transform="translate(155.352 190.254)" style="fill:#fff"/>
                        <path data-name="Path 46158" d="m79.055 19.906-15.13 34.877-15.2-34.876z" transform="translate(119.73 162.157)" style="fill:#fff"/>
                        <path data-name="Path 46159" d="M93.86 46.906 77.126 85.148 60.313 46.906z" transform="translate(51.107 87.442)" style="fill:#fff"/>
                        <path data-name="Path 46160" d="M93.86 46.906 77.126 85.148 60.313 46.906z" transform="translate(88.282 173.943)" style="fill:#fff"/>
                        <path data-name="Path 46161" d="M69.085 56.59 92.9 1.678l23.935 54.912z" transform="translate(15.531 67.704)" style="fill:#fff"/>
                        <path data-name="Path 46162" d="M69.085 56.59 92.9 1.678l23.935 54.912z" transform="translate(52.706 154.204)" style="fill:#fff"/>
                        <path data-name="Path 46163" d="m57.914 0 8.3 19.047H49.651z" transform="translate(94.068 66.971)" style="fill:#fff"/>
                        <path data-name="Path 46164" d="m57.914 0 8.3 19.047H49.651z" transform="translate(131.243 153.469)" style="fill:#fff"/>
                        <path data-name="Path 46166" d="m79.055 19.906-15.13 34.877-15.2-34.876z" transform="translate(32.361 8.687)" style="fill:#fff"/>
                        <path data-name="Path 46167" d="m79.055 19.906-15.13 34.877-15.2-34.876z" transform="translate(-48.725 75.659)" style="fill:#fff"/>
                        <path data-name="Path 46168" d="m79.055 19.906-15.13 34.877-15.2-34.876z" transform="translate(37.442 155.378)" style="fill:#fff"/>
                        <path data-name="Path 46169" d="M93.86 46.906 77.126 85.148 60.313 46.906z" transform="translate(.914 20.473)" style="fill:#fff"/>
                        <path data-name="Path 46170" d="M93.86 46.906 77.126 85.148 60.313 46.906z" transform="translate(-25.89 66.098)" style="fill:#fff"/>
                        <path data-name="Path 46172" d="M93.86 46.906 77.126 85.148 60.313 46.906z" transform="translate(5.994 167.164)" style="fill:#fff"/>
                        <path data-name="Path 46173" d="M69.085 56.59 92.9 1.678l23.935 54.912z" transform="translate(-34.662 .734)" style="fill:#fff"/>
                        <path data-name="Path 46174" d="M69.085 56.59 92.9 1.678l23.935 54.912z" transform="translate(-29.582 147.425)" style="fill:#fff"/>
                        <path data-name="Path 46175" d="m57.914 0 8.3 19.047H49.651z" transform="translate(43.874)" style="fill:#fff"/>
                        <path data-name="Path 46176" d="m57.914 0 8.3 19.047H49.651z" transform="translate(-31.796 63.47)" style="fill:#fff"/>
                        <path data-name="Path 46177" d="m57.914 0 8.3 19.047H49.651z" transform="translate(48.955 146.691)" style="fill:#fff"/>
                        <path data-name="Path 46178" d="m57.914 0 8.3 19.047H49.651z" transform="translate(16.656 127.643)" style="fill:#fff"/>
                    </g>
                </g>
            </g>
        </g>
    </g>
</svg>
