<svg xmlns="http://www.w3.org/2000/svg" width="778" height="575.506" viewBox="0 0 778 575.506">
    <g data-name="Group 16625" style="opacity:.034">
        <path data-name="Path 46156" d="m48.725 19.906 40.137 92.522 40.323-92.521z" transform="translate(300.551 233.612)" style="fill:#215273"/>
        <path data-name="Path 46158" d="m48.725 19.906 40.137 92.522 40.323-92.521z" transform="translate(201.932 463.077)" style="fill:#215273"/>
        <path data-name="Path 46159" d="m60.313 46.906 44.393 101.45 44.6-101.45z" transform="translate(333.11 309.498)" style="fill:#215273"/>
        <path data-name="Path 46161" d="M195.759 147.351 132.577 1.678 69.085 147.351z" transform="translate(357.768 182.381)" style="fill:#215273"/>
        <path data-name="Path 46162" d="M195.759 147.351 132.577 1.678 69.085 147.351z" transform="translate(259.149 411.852)" style="fill:#215273"/>
        <path data-name="Path 46163" d="M71.672 0 49.651 50.529h43.941z" transform="translate(303.145 177.664)" style="fill:#215273"/>
        <path data-name="Path 46164" d="M71.672 0 49.651 50.529h43.941z" transform="translate(204.525 407.13)" style="fill:#215273"/>
        <path data-name="Path 46165" d="M71.672 0 49.651 50.529h43.941z" transform="translate(39.352 478.712)" style="fill:#215273"/>
        <path data-name="Path 46166" d="m48.725 19.906 40.137 92.522 40.323-92.521z" transform="translate(433.706 55.946)" style="fill:#215273"/>
        <path data-name="Path 46167" d="m48.725 19.906 40.137 92.522 40.323-92.521z" transform="translate(648.815 233.612)" style="fill:#215273"/>
        <path data-name="Path 46168" d="m48.725 19.906 40.137 92.522 40.323-92.521z" transform="translate(420.228 445.095)" style="fill:#215273"/>
        <path data-name="Path 46169" d="m60.313 46.906 44.393 101.45 44.6-101.45z" transform="translate(466.266 131.839)" style="fill:#215273"/>
        <path data-name="Path 46170" d="m60.313 46.906 44.393 101.45 44.6-101.45z" transform="translate(537.373 252.875)" style="fill:#215273"/>
        <path data-name="Path 46171" d="m60.313 46.906 44.393 101.45 44.6-101.45z" transform="translate(-60.313 334.626)" style="fill:#215273"/>
        <path data-name="Path 46173" d="M195.759 147.351 132.577 1.678 69.085 147.351z" transform="translate(490.923 4.721)" style="fill:#215273"/>
        <path data-name="Path 46174" d="M195.759 147.351 132.577 1.678 69.085 147.351z" transform="translate(477.446 393.869)" style="fill:#215273"/>
        <path data-name="Path 46175" d="M71.672 0 49.651 50.529h43.941z" transform="translate(436.301)" style="fill:#215273"/>
        <path data-name="Path 46176" d="M71.672 0 49.651 50.529h43.941z" transform="translate(637.041 168.376)" style="fill:#215273"/>
        <path data-name="Path 46177" d="M71.672 0 49.651 50.529h43.941z" transform="translate(422.821 389.147)" style="fill:#215273"/>
        <path data-name="Path 46178" d="M71.672 0 49.651 50.529h43.941z" transform="translate(508.507 338.616)" style="fill:#215273"/>
    </g>
</svg>
