<svg data-name="Group 247" xmlns="http://www.w3.org/2000/svg" width="234.406" height="259.091" viewBox="0 0 234.406 259.091">
    <g data-name="Group 3" style="opacity:.2">
        <g data-name="Group 1">
            <g data-name="Group 16627" style="opacity:.498">
                <g data-name="Group 16625">
                    <path data-name="Path 46156" d="m48.725 19.906 15.13 34.877 15.2-34.876z" transform="translate(24.072 75.659)" style="fill:#fff"/>
                    <path data-name="Path 46157" d="m48.725 19.906 15.13 34.877 15.2-34.876z" transform="translate(-48.725 190.254)" style="fill:#fff"/>
                    <path data-name="Path 46158" d="m48.725 19.906 15.13 34.877 15.2-34.876z" transform="translate(-13.103 162.157)" style="fill:#fff"/>
                    <path data-name="Path 46159" d="m60.313 46.906 16.734 38.242L93.86 46.906z" transform="translate(29.125 87.442)" style="fill:#fff"/>
                    <path data-name="Path 46160" d="m60.313 46.906 16.734 38.242L93.86 46.906z" transform="translate(-8.05 173.943)" style="fill:#fff"/>
                    <path data-name="Path 46161" d="M116.835 56.59 93.019 1.678 69.085 56.59z" transform="translate(32.955 67.704)" style="fill:#fff"/>
                    <path data-name="Path 46162" d="M116.835 56.59 93.019 1.678 69.085 56.59z" transform="translate(-4.22 154.204)" style="fill:#fff"/>
                    <path data-name="Path 46163" d="m57.952 0-8.3 19.047h16.563z" transform="translate(24.473 66.971)" style="fill:#fff"/>
                    <path data-name="Path 46164" d="m57.952 0-8.3 19.047h16.563z" transform="translate(-12.703 153.469)" style="fill:#fff"/>
                    <path data-name="Path 46166" d="m48.725 19.906 15.13 34.877 15.2-34.876z" transform="translate(74.265 8.687)" style="fill:#fff"/>
                    <path data-name="Path 46167" d="m48.725 19.906 15.13 34.877 15.2-34.876z" transform="translate(155.351 75.659)" style="fill:#fff"/>
                    <path data-name="Path 46168" d="m48.725 19.906 15.13 34.877 15.2-34.876z" transform="translate(69.185 155.378)" style="fill:#fff"/>
                    <path data-name="Path 46169" d="m60.313 46.906 16.734 38.242L93.86 46.906z" transform="translate(79.319 20.473)" style="fill:#fff"/>
                    <path data-name="Path 46170" d="m60.313 46.906 16.734 38.242L93.86 46.906z" transform="translate(106.123 66.098)" style="fill:#fff"/>
                    <path data-name="Path 46172" d="m60.313 46.906 16.734 38.242L93.86 46.906z" transform="translate(74.238 167.164)" style="fill:#fff"/>
                    <path data-name="Path 46173" d="M116.835 56.59 93.019 1.678 69.085 56.59z" transform="translate(83.148 .734)" style="fill:#fff"/>
                    <path data-name="Path 46174" d="M116.835 56.59 93.019 1.678 69.085 56.59z" transform="translate(78.068 147.425)" style="fill:#fff"/>
                    <path data-name="Path 46175" d="m57.952 0-8.3 19.047h16.563z" transform="translate(74.666)" style="fill:#fff"/>
                    <path data-name="Path 46176" d="m57.952 0-8.3 19.047h16.563z" transform="translate(150.336 63.47)" style="fill:#fff"/>
                    <path data-name="Path 46177" d="m57.952 0-8.3 19.047h16.563z" transform="translate(69.585 146.691)" style="fill:#fff"/>
                    <path data-name="Path 46178" d="m57.952 0-8.3 19.047h16.563z" transform="translate(101.885 127.643)" style="fill:#fff"/>
                </g>
            </g>
        </g>
    </g>
</svg>
