<?xml version="1.0" encoding="utf-8"?>
<!-- Generator: Adobe Illustrator 27.0.1, SVG Export Plug-In . SVG Version: 6.00 Build 0)  -->
<svg version="1.1" id="Layer_1" xmlns="http://www.w3.org/2000/svg" xmlns:xlink="http://www.w3.org/1999/xlink" x="0px" y="0px"
	 viewBox="0 0 98.7 146.1" style="enable-background:new 0 0 98.7 146.1;" xml:space="preserve">
<style type="text/css">
</style>
<g >
	<path  d="M32.1,60.5h15c7.2,0,12.5-1.8,15.9-5.4c3.5-3.6,5.2-8.3,5.2-14.3c0-5.7-1.7-10.2-5.1-13.4
		c-3.4-3.2-8.1-4.8-14.1-4.8c-5.4,0-9.9,1.5-13.6,4.4c-3.6,3-5.5,6.8-5.5,11.6H1.8c0-7.4,2-14.1,6-20c4-5.9,9.6-10.5,16.8-13.8
		c7.2-3.3,15.1-5,23.8-5c15,0,26.8,3.6,35.4,10.8c8.5,7.2,12.8,17.1,12.8,29.7c0,6.5-2,12.5-6,18c-4,5.5-9.2,9.7-15.6,12.6
		c8,2.9,14,7.2,17.9,12.9c3.9,5.7,5.9,12.5,5.9,20.3c0,12.6-4.6,22.8-13.8,30.4c-9.2,7.6-21.4,11.4-36.6,11.4
		c-14.2,0-25.8-3.7-34.8-11.2C4.5,127.4,0,117.5,0,105.2h28.2c0,5.3,2,9.7,6,13.1c4,3.4,8.9,5.1,14.8,5.1c6.7,0,12-1.8,15.8-5.3
		c3.8-3.5,5.7-8.3,5.7-14.1c0-14.2-7.8-21.3-23.4-21.3H32.1V60.5z"/>
</g>
</svg>
