<?xml version="1.0" encoding="utf-8"?>
<!-- Generator: Adobe Illustrator 27.1.1, SVG Export Plug-In . SVG Version: 6.00 Build 0)  -->
<svg version="1.1" id="Layer_1" xmlns="http://www.w3.org/2000/svg" xmlns:xlink="http://www.w3.org/1999/xlink" x="0px" y="0px"
	 viewBox="0 0 19 19" style="enable-background:new 0 0 19 19;" xml:space="preserve">
<style type="text/css">
	.st0{fill:none;stroke:#FFCA3A;stroke-linecap:round;}
	.st1{fill:#FFF4D8;}
	.st2{fill:#FFCA3A;}
</style>
<symbol  id="New_Symbol" viewBox="-0.5 -1.2 1 2.4">
	<path class="st0" d="M0-0.7v1.4"/>
</symbol>
<g>
	<circle class="st1" cx="9.5" cy="9.5" r="9.5"/>
</g>
<g>
	<g>
		<g>
			<path class="st2" d="M12.9,9.7c0-1.9-1.5-3.4-3.4-3.4S6.1,7.8,6.1,9.7c0,1.2,0.7,2.3,1.7,2.9v2.2c0,0.7,0.6,1.3,1.3,1.3H10
				c0.7,0,1.3-0.6,1.3-1.3v-2.3C12.3,12,12.9,10.9,12.9,9.7z"/>
		</g>
	</g>
	<g>
		<path class="st2" d="M7.8,13.7c0-0.6-0.2-1.2-0.6-1.6h4.7c-0.4,0.4-0.6,1-0.6,1.6"/>
	</g>
	<g>
		<circle class="st2" cx="9.5" cy="9.7" r="3.6"/>
		<path class="st1" d="M9.5,6.3c1.9,0,3.4,1.5,3.4,3.4s-1.5,3.4-3.4,3.4s-3.4-1.5-3.4-3.4S7.6,6.3,9.5,6.3 M9.5,5.8
			c-2.1,0-3.9,1.7-3.9,3.9s1.7,3.9,3.9,3.9s3.9-1.7,3.9-3.9S11.6,5.8,9.5,5.8L9.5,5.8z"/>
	</g>
	<g>
		<defs>
			<rect id="SVGID_1_" x="9" y="2.8" width="1" height="2.4"/>
		</defs>
		<clipPath id="SVGID_00000176008477500127722440000012272291675039205311_">
			<use xlink:href="#SVGID_1_"  style="overflow:visible;"/>
		</clipPath>
		<g style="clip-path:url(#SVGID_00000176008477500127722440000012272291675039205311_);">
			
				<use xlink:href="#New_Symbol"  width="1" height="2.4" id="XMLID_00000134958591753363090420000010933225837745575820_" x="-0.5" y="-1.2" transform="matrix(1 0 0 -1 9.4999 3.9522)" style="overflow:visible;"/>
		</g>
	</g>
	<g>
		<defs>
			
				<rect id="SVGID_00000158726457958163968880000011980480857326434210_" x="11.3" y="4.3" transform="matrix(0.544 -0.8391 0.8391 0.544 1.6457 12.7265)" width="2.4" height="1"/>
		</defs>
		<clipPath id="SVGID_00000167367970645338432160000016163408669181342592_">
			<use xlink:href="#SVGID_00000158726457958163968880000011980480857326434210_"  style="overflow:visible;"/>
		</clipPath>
		<g transform="matrix(1 0 0 1 0 0)" style="clip-path:url(#SVGID_00000167367970645338432160000016163408669181342592_);">
			
				<use xlink:href="#New_Symbol"  width="1" height="2.4" id="XMLID_00000142153596332886137200000002179350540744370068_" x="-0.5" y="-1.2" transform="matrix(0.8391 0.544 0.544 -0.8391 12.5318 4.8491)" style="overflow:visible;"/>
		</g>
	</g>
	<g>
		<defs>
			
				<rect id="SVGID_00000014592665332885887750000015649032244868413343_" x="6" y="3.6" transform="matrix(0.8393 -0.5437 0.5437 0.8393 -1.596 4.2967)" width="1" height="2.4"/>
		</defs>
		<clipPath id="SVGID_00000011711560196851332580000008311351534130703495_">
			<use xlink:href="#SVGID_00000014592665332885887750000015649032244868413343_"  style="overflow:visible;"/>
		</clipPath>
		<g style="clip-path:url(#SVGID_00000011711560196851332580000008311351534130703495_);">
			
				<use xlink:href="#New_Symbol"  width="1" height="2.4" id="XMLID_00000134235426263445860750000012198369165894117282_" x="-0.5" y="-1.2" transform="matrix(0.8393 -0.5437 -0.5437 -0.8393 6.4698 4.848)" style="overflow:visible;"/>
		</g>
	</g>
	<g>
		<defs>
			
				<rect id="SVGID_00000121274227399461514350000005505952599961789578_" x="3.9" y="6.1" transform="matrix(0.4058 -0.914 0.914 0.4058 -4.0206 8.3436)" width="1" height="2.4"/>
		</defs>
		<clipPath id="SVGID_00000161624857595887212450000013351719403991458748_">
			<use xlink:href="#SVGID_00000121274227399461514350000005505952599961789578_"  style="overflow:visible;"/>
		</clipPath>
		<g style="clip-path:url(#SVGID_00000161624857595887212450000013351719403991458748_);">
			
				<use xlink:href="#New_Symbol"  width="1" height="2.4" id="XMLID_00000065058011280977205190000007763253381787405236_" x="-0.5" y="-1.2" transform="matrix(0.4058 -0.914 -0.914 -0.4058 4.4064 7.2639)" style="overflow:visible;"/>
		</g>
	</g>
	<g>
		<defs>
			
				<rect id="SVGID_00000165944619599755731230000002611738536358794120_" x="13.4" y="6.8" transform="matrix(0.914 -0.4057 0.4057 0.914 -1.6921 6.5453)" width="2.4" height="1"/>
		</defs>
		<clipPath id="SVGID_00000148650232195670748260000007517326622618145692_">
			<use xlink:href="#SVGID_00000165944619599755731230000002611738536358794120_"  style="overflow:visible;"/>
		</clipPath>
		
			<g transform="matrix(1 0 0 1 0 9.536743e-07)" style="clip-path:url(#SVGID_00000148650232195670748260000007517326622618145692_);">
			
				<use xlink:href="#New_Symbol"  width="1" height="2.4" id="XMLID_00000101095011126890195650000000080046274331580559_" x="-0.5" y="-1.2" transform="matrix(0.4057 0.914 0.914 -0.4057 14.5936 7.2641)" style="overflow:visible;"/>
		</g>
	</g>
</g>
</svg>
