<svg xmlns="http://www.w3.org/2000/svg" width="22" height="22" viewBox="0 0 22 22">
    <path d="M19.751 13.252c0-3.209-1.995-4.3-3.84-4.3a3.608 3.608 0 0 0-3.144 1.748h-.042V9.243H9.544V19.75h3.307v-5.7A2.011 2.011 0 0 1 14.8 11.8c.929 0 1.648.522 1.648 2.215v5.735h3.307zM7.81 5.881a1.873 1.873 0 0 0-1.91-1.9 1.9 1.9 0 1 0 0 3.8 1.872 1.872 0 0 0 1.91-1.9zM18.619 1l.212.005A4.381 4.381 0 0 1 23 5.381v13.238l-.005.212A4.381 4.381 0 0 1 18.619 23H5.381l-.212-.005A4.382 4.382 0 0 1 1 18.619V5.381l.005-.212A4.382 4.382 0 0 1 5.381 1zM7.557 9.235H4.25v10.507h3.307z" transform="translate(-1 -1)" style="fill:#fff;fill-rule:evenodd"/>
</svg>
