<svg xmlns="http://www.w3.org/2000/svg" width="22" height="17.764" viewBox="0 0 22 17.764">
    <path d="M23 5.1a9.131 9.131 0 0 1-2.592.706 4.491 4.491 0 0 0 1.984-2.481 9 9 0 0 1-2.865 1.086 4.52 4.52 0 0 0-7.8 3.07 4.441 4.441 0 0 0 .116 1.021 12.837 12.837 0 0 1-9.3-4.685 4.448 4.448 0 0 0-.612 2.255 4.3 4.3 0 0 0 1.801 3.736 7.187 7.187 0 0 1-2.247-.559v.056a4.679 4.679 0 0 0 3.822 4.4 3.776 3.776 0 0 1-1.088.157 3.945 3.945 0 0 1-.8-.08 4.548 4.548 0 0 0 4.241 3.115 9.043 9.043 0 0 1-5.591 1.919A9.021 9.021 0 0 1 1 18.749a12.842 12.842 0 0 0 6.921 2.015A12.71 12.71 0 0 0 20.76 8c0-.193 0-.386-.012-.579A9.115 9.115 0 0 0 23 5.1" transform="translate(-1 -3)" style="fill:#fff;fill-rule:evenodd"/>
</svg>
