<svg xmlns="http://www.w3.org/2000/svg" width="407.136" height="389.457" viewBox="0 0 407.136 389.457">
    <g data-name="Group 248">
        <g data-name="Group 45" style="opacity:.1">
            <g data-name="Group 1">
                <g data-name="Group 16627" style="opacity:.498">
                    <g data-name="Group 16625">
                        <path data-name="Path 46161" d="M134.388 81.4 101.816 1.678 69.085 81.4z" transform="translate(-69.085 122.182)" style="fill:#fff"/>
                        <path data-name="Path 46166" d="m48.725 19.906 20.691 50.637L90.2 19.907z" transform="translate(-20.074 44.733)" style="fill:#fff"/>
                        <path data-name="Path 46167" d="m48.725 19.906 20.691 50.637L90.2 19.907z" transform="translate(90.819 141.969)" style="fill:#fff"/>
                        <path data-name="Path 46168" d="m48.725 19.906 20.691 50.637L90.2 19.907z" transform="translate(-27.022 257.714)" style="fill:#fff"/>
                        <path data-name="Path 46169" d="M60.313 46.906 83.2 102.43l22.994-55.524z" transform="translate(-8.903 74.046)" style="fill:#fff"/>
                        <path data-name="Path 46170" d="M60.313 46.906 83.2 102.43l22.994-55.524z" transform="translate(27.754 140.289)" style="fill:#fff"/>
                        <path data-name="Path 46172" d="M60.313 46.906 83.2 102.43l22.994-55.524z" transform="translate(-15.851 287.027)" style="fill:#fff"/>
                        <path data-name="Path 46173" d="M134.388 81.4 101.816 1.678 69.085 81.4z" transform="translate(-.441 24.949)" style="fill:#fff"/>
                        <path data-name="Path 46174" d="M134.388 81.4 101.816 1.678 69.085 81.4z" transform="translate(-7.389 237.93)" style="fill:#fff"/>
                        <path data-name="Path 46175" d="M61 0 49.651 27.655H72.3z" transform="translate(-19.185 23.125)" style="fill:#fff"/>
                        <path data-name="Path 46176" d="M61 0 49.651 27.655H72.3z" transform="translate(84.301 115.277)" style="fill:#fff"/>
                        <path data-name="Path 46177" d="M61 0 49.651 27.655H72.3z" transform="translate(-26.133 236.105)" style="fill:#fff"/>
                        <path data-name="Path 46178" d="M61 0 49.651 27.655H72.3z" transform="translate(18.039 208.449)" style="fill:#fff"/>
                    </g>
                    <g data-name="Group 16626">
                        <path data-name="Path 46179" d="m48.725 19.906 20.691 50.637L90.2 19.907z" transform="translate(137.397 118.844)" style="fill:#fff"/>
                        <path data-name="Path 46180" d="m48.725 19.906 20.691 50.637L90.2 19.907z" transform="translate(86.556 244.431)" style="fill:#fff"/>
                        <path data-name="Path 46181" d="M60.313 46.906 83.2 102.43l22.994-55.524z" transform="translate(148.567 148.154)" style="fill:#fff"/>
                        <path data-name="Path 46182" d="M60.313 46.906 83.2 102.43l22.994-55.524z" transform="translate(97.727 273.744)" style="fill:#fff"/>
                        <path data-name="Path 46183" d="M134.388 81.4 101.816 1.678 69.085 81.4z" transform="translate(157.029 99.057)" style="fill:#fff"/>
                        <path data-name="Path 46184" d="M134.388 81.4 101.816 1.678 69.085 81.4z" transform="translate(106.189 224.647)" style="fill:#fff"/>
                        <path data-name="Path 46185" d="M61 0 49.651 27.655H72.3z" transform="translate(138.285 97.235)" style="fill:#fff"/>
                        <path data-name="Path 46186" d="M61 0 49.651 27.655H72.3z" transform="translate(87.444 222.822)" style="fill:#fff"/>
                        <path data-name="Path 46187" d="m48.725 19.906 20.691 50.637L90.2 19.907z" transform="translate(206.04 21.608)" style="fill:#fff"/>
                        <path data-name="Path 46188" d="m48.725 19.906 20.691 50.637L90.2 19.907z" transform="translate(316.933 118.844)" style="fill:#fff"/>
                        <path data-name="Path 46189" d="m48.725 19.906 20.691 50.637L90.2 19.907z" transform="translate(199.092 234.589)" style="fill:#fff"/>
                        <path data-name="Path 46190" d="M60.313 46.906 83.2 102.43l22.994-55.524z" transform="translate(217.211 50.921)" style="fill:#fff"/>
                        <path data-name="Path 46191" d="M60.313 46.906 83.2 102.43l22.994-55.524z" transform="translate(253.868 117.164)" style="fill:#fff"/>
                        <path data-name="Path 46192" d="M60.313 46.906 83.2 102.43l22.994-55.524z" transform="translate(210.263 263.902)" style="fill:#fff"/>
                        <path data-name="Path 46193" d="M134.388 81.4 101.816 1.678 69.085 81.4z" transform="translate(225.673 1.824)" style="fill:#fff"/>
                        <path data-name="Path 46194" d="M134.388 81.4 101.816 1.678 69.085 81.4z" transform="translate(218.725 214.805)" style="fill:#fff"/>
                        <path data-name="Path 46195" d="M61 0 49.651 27.655H72.3z" transform="translate(206.929)" style="fill:#fff"/>
                        <path data-name="Path 46196" d="M61 0 49.651 27.655H72.3z" transform="translate(310.415 92.152)" style="fill:#fff"/>
                        <path data-name="Path 46197" d="M61 0 49.651 27.655H72.3z" transform="translate(199.98 212.98)" style="fill:#fff"/>
                        <path data-name="Path 46198" d="M61 0 49.651 27.655H72.3z" transform="translate(244.153 185.324)" style="fill:#fff"/>
                    </g>
                </g>
            </g>
        </g>
    </g>
</svg>
